<svg width="757" height="178" viewBox="0 0 757 178" fill="none" xmlns="http://www.w3.org/2000/svg">
<path d="M742.219 0.800171L595.033 0.800171C587.237 0.800171 580.368 8.9005 580.368 16.5679V56.2204C580.368 63.4245 586.264 74.0095 593.566 74.4728L645.86 79.4858C648.223 79.6754 649.847 77.1648 648.702 75.0931L641.479 62.023C641.055 61.0733 642.044 60.1004 643.01 60.5405L652.862 65.9209C654.493 66.659 657.31 66.0409 658.615 67.2652L662.225 70.6509C663.909 72.2307 666.986 75.4838 667.678 77.6848C667.931 78.4876 668.186 79.3437 668.432 80.1848C668.99 82.0926 671.263 82.1825 672.009 80.3397L673.176 77.4559C673.498 76.6606 674.956 76.5279 675.804 76.6672C676.45 76.7733 677.187 77.163 677.257 77.8125L677.584 80.8148C677.676 81.6644 678.896 82.1513 679.746 82.0494C680.708 81.9341 680.522 81.5544 679.963 80.764L678.626 78.8724C677.589 77.407 674.888 78.2663 676.646 78.6355C677.022 78.7145 677.435 78.7748 677.77 78.9079L702.957 87.2242C704.773 87.9344 692.008 89.2206 688.227 91.1606C687.751 91.4051 687.529 91.922 687.529 92.4567C687.529 93.2362 687.014 93.9142 686.453 94.4567C685.901 94.9903 685.511 95.7034 685.546 96.3783C685.565 96.7388 685.706 97.0826 685.778 97.4364L686.633 101.657C686.995 103.445 687.332 106.586 685.67 105.829L677.677 103.212C677.044 102.931 676.373 103.339 675.811 103.964C674.857 105.025 674.014 106.237 672.802 106.994C671.621 107.732 670.717 108.829 670.365 110.175C669.995 111.59 669.617 113.176 669.246 113.848C668.914 114.45 668.378 113.497 668 112.923C664.937 108.269 665.689 100.917 665.002 95.3916C664.929 94.8 664.83 94.2472 664.714 93.7565C664.323 92.0961 662.964 92.2762 661.83 93.5524L645.173 112.304C644.306 113.28 642.631 114.303 642.285 113.045C642.153 112.566 642.489 112.097 642.768 111.685L649.362 101.969C650.766 99.9002 649.138 97.1319 646.644 97.3464L593.283 102.22C585.982 102.706 580.368 115.233 580.368 122.437V162.983C580.368 170.65 587.237 176.496 595.033 176.496H741.683C749.479 176.496 756.35 169.587 756.35 161.919V16.0303C756.35 8.36285 750.015 0.800171 742.219 0.800171Z" fill="#547EF7"/>
<path d="M569.362 90.0697C568.806 89.0691 568.801 87.8536 569.35 86.8488L575.783 75.0771C576.42 73.9107 577.69 73.2324 579.016 73.3498L636.789 78.4636C639.418 78.6963 641.269 75.9409 640.056 73.6015L632.392 58.8299C630.867 55.8891 634.098 52.7639 636.995 54.3788L654.762 64.2835C656.835 65.4394 659.422 64.1313 659.714 61.7788L663.946 27.7056C664.433 23.7911 670.122 23.805 670.589 27.7218L674.644 61.7234C674.926 64.0912 677.532 65.4092 679.612 64.2363L696.923 54.4742C699.866 52.8146 703.137 56.0611 701.491 59.0079L691.651 76.6249C690.481 78.7202 691.84 81.3272 694.231 81.573L726.931 84.9347C730.925 85.3453 730.94 91.1455 726.949 91.5768L694.548 95.0781C692.161 95.3361 690.815 97.9456 691.992 100.035L701.68 117.236C703.396 120.283 699.863 123.581 696.932 121.668L681.052 111.303C679.005 109.967 676.262 111.202 675.91 113.617L670.588 150.105C670.034 153.907 664.542 153.921 663.969 150.122L658.46 113.635C658.094 111.216 655.334 109.997 653.295 111.354L637.246 122.032C634.366 123.948 630.823 120.773 632.424 117.709L640.035 103.14C641.257 100.802 639.409 98.0394 636.778 98.2687L578.994 103.302C577.679 103.417 576.42 102.749 575.779 101.597L569.362 90.0697Z" fill="white"/>
<path d="M356.035 177.212L335.289 177.212L315.759 177.212L279.763 177.212L205.903 177.212C198.234 177.212 193.697 171.249 193.697 163.644L193.697 14.3725C193.697 6.79023 198.21 0.800172 205.903 0.800172L354.819 0.800172C362.489 0.800172 369.467 6.76697 369.467 14.3725L369.467 40.4928C369.467 48.4472 364.33 55.4148 356.284 54.8798L247.81 46.022C240.57 44.4088 233.171 55.1596 242.522 61.7797L272.519 75.7752C284.752 80.1245 284.752 97.8643 272.519 102.237L241.004 115.859C234.934 119.674 239.117 132.684 246.292 132.195L356.284 122.666C364.306 122.131 369.467 129.565 369.467 137.519L369.467 163.981C369.467 171.563 363.728 177.212 356.035 177.212Z" fill="#547EF7"/>
<path d="M173.372 46.5497C175.136 44.1773 176.076 41.27 176.076 38.2929L176.076 14.546C176.076 6.96368 170.026 0.800172 162.532 0.800172L17.7368 0.800171C10.2656 0.800171 0.351562 6.94042 0.351562 14.546L0.351562 161.517C0.351562 169.099 9.55175 177.212 17.0459 177.212L33.6937 177.212C41.1649 177.212 48.6884 169.358 48.6884 161.776L48.6884 155.16C48.6884 147.927 54.8042 148.4 62.1702 147.841L106.833 144.018C111.668 143.692 116.411 142.246 119.115 146.34L132.693 169.145C135.191 172.983 138.556 177.212 143.094 177.212L162.12 177.212C169.591 177.212 176.122 169.122 176.122 161.517L176.122 154.492C176.122 151.771 175.32 149.097 173.807 146.817L148.325 95.8126C145.116 90.9515 144.864 87.2799 148.325 82.5817L173.395 46.5497L173.372 46.5497ZM124.642 51.056L111.588 80.3346C109.204 83.5443 104.777 95.8126 100.026 95.8126L62.1087 102.712C54.3166 103.201 44.2941 101.347 44.2941 93.4163L44.2941 66.9546L44.2941 46.5497C44.2941 38.5953 54.2708 29.6361 62.1087 30.171L89.2101 32.1291L114.945 34.7389C127.812 39.1212 126.133 46.1143 124.642 51.056Z" fill="#547EF7"/>
<path d="M547.78 177.212L399.252 177.212C391.465 177.212 387.045 171.343 387.045 163.644L387.045 16.6342C387.045 8.93563 391.465 0.800172 399.252 0.800172L548.168 0.800172C555.955 0.800172 562.816 8.93563 562.816 16.6342L562.816 53.9713C562.816 61.9025 555.166 71.7087 547.144 71.197L452.959 63.1783C444.171 63.1783 439.824 67.8673 439.776 75.7752L439.776 89.006L439.776 102.237C439.8 110.145 444.171 114.74 452.959 114.74L547.144 106.815C555.143 106.327 562.816 117.287 562.816 125.195L562.816 163.644C562.816 171.343 555.566 177.212 547.78 177.212Z" fill="#547EF7"/>
</svg>
