<?xml version="1.0" encoding="UTF-8"?>
<svg width="120" height="40" viewBox="0 0 120 40" fill="none" xmlns="http://www.w3.org/2000/svg">
  <path fill="white" d="M24.5 8C28.6 8 32 11.4 32 15.5C32 19.6 28.6 23 24.5 23H19L25 32H19L13 23H11V32H5V8H24.5ZM24.5 13H11V18H24.5C25.9 18 27 16.9 27 15.5C27 14.1 25.9 13 24.5 13Z"/>
  <path fill="white" d="M44 8H68V13H49V16H65V21H49V27H68V32H44V8Z"/>
  <path fill="white" d="M80 8C84.1 8 87.5 11.4 87.5 15.5C87.5 19.6 84.1 23 80 23H74.5V32H68.5V8H80ZM80 13H74.5V18H80C81.4 18 82.5 16.9 82.5 15.5C82.5 14.1 81.4 13 80 13Z"/>
  <path fill="white" d="M100 8C104.1 8 107.5 11.4 107.5 15.5C107.5 19.6 104.1 23 100 23C95.9 23 92.5 19.6 92.5 15.5C92.5 11.4 95.9 8 100 8ZM100 13C98.6 13 97.5 14.1 97.5 15.5C97.5 16.9 98.6 18 100 18C101.4 18 102.5 16.9 102.5 15.5C102.5 14.1 101.4 13 100 13Z"/>
</svg> 