<svg width="159" height="45" viewBox="0 0 159 45" fill="none" xmlns="http://www.w3.org/2000/svg">
<path d="M75.9313 41.7685L44.9137 41.7685C43.3135 41.7685 42.0127 40.4122 42.0127 38.7322L42.0127 6.26791C42.0127 4.59306 43.3086 3.23161 44.9137 3.23161L75.9313 3.23161C77.5315 3.23161 78.8323 4.58792 78.8323 6.26791L78.8323 12.0066C78.8323 13.7636 77.4137 15.1508 75.7349 15.0326L51.5109 13.3115C50.0137 13.2036 49.3658 15.2638 50.6371 16.1064L60.0666 19.6564C62.6191 20.6172 62.624 24.3984 60.0715 25.3643L50.6715 28.9246C49.4051 29.7672 50.0481 31.8273 51.5452 31.7194L75.73 29.9984C77.4038 29.8802 78.8273 31.2673 78.8273 33.0244L78.8273 38.7271C78.8273 40.4019 77.5315 41.7634 75.9263 41.7634L75.9313 41.7685Z" fill="white"/>
<path d="M39.9117 13.4143C40.2897 12.8903 40.4909 12.2481 40.4909 11.5905L40.4909 6.34504C40.4909 4.67019 39.195 3.30873 37.5899 3.30873L6.57726 3.30873C4.97705 3.30873 3.67627 4.66505 3.67627 6.34504L3.67627 38.8094C3.67627 40.4842 4.97214 41.8457 6.57726 41.8457L10.0133 41.8457C11.6135 41.8457 12.9143 40.4842 12.9143 38.8094L12.9143 37.3863C12.9143 35.7885 14.0924 34.463 15.614 34.3551L25.1122 33.6821C26.1479 33.6101 27.1444 34.1239 27.7236 35.0281L31.1989 40.4945C31.7339 41.3422 32.642 41.8457 33.6139 41.8457L37.5997 41.8457C39.2 41.8457 40.5007 40.4893 40.5007 38.8094L40.5007 37.2578C40.5007 36.6567 40.3289 36.0659 40.005 35.5624L33.5992 25.6058C32.912 24.532 32.9464 23.1244 33.6876 22.0866L39.9166 13.4143L39.9117 13.4143ZM28.5482 16.4609L23.6004 23.3299C23.0899 24.0388 22.3045 24.4807 21.4602 24.532L16.0902 24.8711C14.4212 24.979 13.0174 23.5919 13.0174 21.84L13.0174 13.9024C13.0174 12.1454 14.436 10.7582 16.1147 10.8764L26.4375 11.611C28.7348 11.7755 29.9423 14.5395 28.5581 16.4661L28.5482 16.4609Z" fill="white"/>
<path d="M114.852 41.8454L83.9276 41.8454C82.3028 41.8454 80.9824 40.4633 80.9824 38.7628L80.9824 6.3961C80.9824 4.69556 82.3028 3.31355 83.9276 3.31355L114.852 3.31355C116.477 3.31355 117.797 4.69556 117.797 6.3961L117.797 14.7241C117.797 16.476 116.388 17.8632 114.714 17.7501L96.2924 16.5428C94.6284 16.4349 93.2196 17.8118 93.2098 19.5586L93.1951 22.5795L93.2049 25.5952C93.2098 27.342 94.6186 28.724 96.2826 28.611L114.705 27.4036C116.374 27.2957 117.782 28.6829 117.782 30.4297L117.782 38.7577C117.782 40.4582 116.462 41.8402 114.837 41.8402L114.852 41.8454Z" fill="white"/>
<path d="M153.738 3.31355L122.813 3.31355C121.189 3.31355 119.868 4.69556 119.868 6.3961L119.868 15.3303C119.868 16.9281 121.051 18.2536 122.573 18.3564L132.292 19.0294C132.395 18.8907 132.424 18.6954 132.351 18.5259L130.976 15.3098C130.888 15.0991 131.094 14.8834 131.295 14.981L134.162 16.3733C134.407 16.4914 134.697 16.3733 134.805 16.1164L137.348 9.82799C137.515 9.41699 138.074 9.41699 138.241 9.82799L140.73 16.1369C140.833 16.3989 141.122 16.5222 141.368 16.4041L144.465 14.9604C144.667 14.868 144.873 15.0837 144.779 15.2892L143.395 18.5105C143.282 18.7674 143.4 19.0705 143.655 19.1784L149.654 21.6906C150.061 21.8602 150.056 22.4613 149.654 22.6308L143.65 25.1174C143.4 25.2202 143.282 25.5233 143.39 25.7853L144.779 29.0065C144.868 29.2172 144.667 29.433 144.465 29.3354L141.368 27.8917C141.118 27.7735 140.828 27.8968 140.73 28.164L138.329 34.4472C138.167 34.8685 137.593 34.8737 137.431 34.4472L135.021 28.1691C134.918 27.9071 134.628 27.7838 134.383 27.902L131.291 29.3456C131.089 29.4381 130.888 29.2223 130.976 29.0168L132.204 26.1501L122.578 26.8231C121.056 26.931 119.873 28.2513 119.873 29.8491L119.873 38.7525C119.873 40.4531 121.193 41.8351 122.818 41.8351L153.743 41.8351C155.367 41.8351 156.688 40.4531 156.688 38.7525L156.688 6.3961C156.688 4.69556 155.367 3.31355 153.743 3.31355L153.738 3.31355Z" fill="white"/>
</svg>
