<svg width="1198" height="327" viewBox="0 0 1198 327" fill="none" xmlns="http://www.w3.org/2000/svg"> <path d="M1102.1 40L898.521 40C887.738 40 878.237 51.2038 878.237 61.8088V116.653C878.237 126.618 886.392 141.258 896.491 141.899L968.821 148.832C972.089 149.095 974.336 145.622 972.752 142.757L962.761 124.679C962.175 123.365 963.543 122.02 964.879 122.629L978.505 130.07C980.762 131.091 984.658 130.236 986.463 131.93L991.456 136.613C993.785 138.798 998.041 143.297 998.998 146.341C999.347 147.452 999.7 148.636 1000.04 149.799C1000.81 152.438 1003.96 152.562 1004.99 150.013L1006.6 146.025C1007.05 144.925 1009.06 144.741 1010.24 144.934C1011.13 145.081 1012.15 145.62 1012.25 146.518L1012.7 150.67C1012.83 151.846 1014.51 152.519 1015.69 152.378C1017.02 152.219 1016.76 151.693 1015.99 150.6L1014.14 147.984C1012.71 145.957 1008.97 147.146 1011.4 147.656C1011.92 147.766 1012.49 147.849 1012.96 148.033L1047.79 159.536C1050.31 160.518 1032.65 162.297 1027.42 164.98C1026.76 165.318 1026.45 166.033 1026.45 166.773C1026.45 167.851 1025.74 168.789 1024.97 169.539C1024.2 170.277 1023.66 171.263 1023.71 172.197C1023.74 172.695 1023.93 173.171 1024.03 173.66L1025.21 179.498C1025.72 181.97 1026.18 186.316 1023.88 185.268L1012.83 181.649C1011.95 181.261 1011.02 181.824 1010.25 182.688C1008.93 184.157 1007.76 185.833 1006.09 186.88C1004.45 187.9 1003.2 189.418 1002.71 191.279C1002.2 193.236 1001.68 195.431 1001.17 196.36C1000.71 197.192 999.967 195.873 999.444 195.08C995.206 188.643 996.247 178.475 995.297 170.832C995.196 170.014 995.058 169.249 994.898 168.57C994.358 166.274 992.478 166.523 990.91 168.288L967.87 194.224C966.671 195.574 964.355 196.988 963.876 195.249C963.693 194.586 964.159 193.937 964.544 193.368L973.665 179.929C975.606 177.068 973.355 173.239 969.905 173.536L896.1 180.276C886.002 180.949 878.237 198.275 878.237 208.239V264.319C878.237 274.924 887.738 283.01 898.521 283.01H1101.36C1112.14 283.01 1121.64 273.454 1121.64 262.849V61.0652C1121.64 50.4601 1112.88 40 1102.1 40Z" fill="#85A3FA"/> <path d="M863.015 163.471C862.245 162.087 862.238 160.406 862.998 159.016L871.895 142.735C872.777 141.121 874.533 140.183 876.367 140.345L956.275 147.418C959.911 147.74 962.472 143.929 960.793 140.694L950.193 120.263C948.083 116.195 952.553 111.872 956.559 114.106L981.133 127.806C984.001 129.404 987.578 127.595 987.982 124.341L993.837 77.2137C994.509 71.7995 1002.38 71.8186 1003.02 77.236L1008.63 124.265C1009.02 127.54 1012.63 129.363 1015.5 127.74L1039.45 114.238C1043.52 111.943 1048.04 116.433 1045.77 120.509L1032.16 144.875C1030.54 147.773 1032.42 151.379 1035.72 151.719L1080.95 156.369C1086.48 156.937 1086.5 164.959 1080.98 165.556L1036.16 170.399C1032.86 170.755 1031 174.365 1032.63 177.254L1046.03 201.046C1048.4 205.26 1043.51 209.821 1039.46 207.175L1017.5 192.84C1014.67 190.992 1010.87 192.7 1010.38 196.04L1003.02 246.508C1002.26 251.766 994.661 251.785 993.867 246.531L986.248 196.065C985.743 192.72 981.925 191.034 979.105 192.91L956.907 207.679C952.923 210.33 948.023 205.937 950.237 201.7L960.765 181.549C962.454 178.315 959.899 174.494 956.259 174.811L876.337 181.773C874.518 181.932 872.776 181.008 871.889 179.415L863.015 163.471Z" fill="white"/> <path d="M567.957 284L539.263 284L512.25 284L462.463 284L360.305 284C349.697 284 343.422 275.753 343.422 265.234L343.422 58.7723C343.422 48.285 349.665 40 360.305 40L566.275 40C576.883 40 586.535 48.2529 586.535 58.7723L586.535 94.9C586.535 105.902 579.429 115.539 568.301 114.799L418.268 102.548C408.254 100.316 398.02 115.186 410.953 124.342L452.443 143.7C469.363 149.716 469.363 174.252 452.443 180.3L408.853 199.142C400.459 204.417 406.244 222.412 416.168 221.736L568.301 208.556C579.397 207.816 586.535 218.098 586.535 229.1L586.535 265.7C586.535 276.187 578.597 284 567.957 284Z" fill="#85A3FA"/> <path d="M315.309 103.277C317.75 99.9961 319.049 95.975 319.049 91.8573L319.049 59.0122C319.049 48.5249 310.681 40 300.316 40L100.046 40C89.7124 40 76 48.4928 76 59.0122L76 262.291C76 272.779 88.725 284 99.0904 284L122.116 284C132.45 284 142.856 273.137 142.856 262.65L142.856 253.5C142.856 243.495 151.315 244.15 161.503 243.376L223.277 238.089C229.965 237.638 236.525 235.638 240.265 241.3L259.044 272.843C262.5 278.151 267.155 284 273.431 284L299.747 284C310.08 284 319.113 272.811 319.113 262.291L319.113 252.576C319.113 248.812 318.003 245.113 315.911 241.96L280.666 171.414C276.228 164.691 275.88 159.613 280.666 153.114L315.341 103.277L315.309 103.277ZM247.909 109.51L229.854 150.006C226.557 154.446 220.433 171.414 213.863 171.414L161.418 180.958C150.641 181.633 136.778 179.07 136.778 168.1L136.778 131.5L136.778 103.277C136.778 92.2755 150.577 79.8837 161.418 80.6236L198.903 83.3319L234.497 86.9416C252.294 93.0029 249.973 102.675 247.909 109.51Z" fill="#85A3FA"/> <path d="M833.167 284L627.734 284C616.964 284 610.852 275.882 610.852 265.234L610.852 61.9005C610.852 51.2524 616.964 40 627.734 40L833.705 40C844.475 40 853.964 51.2524 853.964 61.9005L853.964 113.542C853.964 124.512 843.384 138.076 832.289 137.368L702.019 126.277C689.863 126.277 683.85 132.762 683.785 143.7L683.785 162L683.785 180.3C683.818 191.238 689.863 197.594 702.019 197.594L832.289 186.632C843.352 185.957 853.964 201.117 853.964 212.054L853.964 265.234C853.964 275.882 843.937 284 833.167 284Z" fill="#85A3FA"/> <rect x="1" y="1" width="1196" height="325" rx="17" stroke="#CFCFCF" stroke-width="2"/> <rect x="320" y="326" width="325" height="22" transform="rotate(-90 320 326)" stroke="#CFCFCF" stroke-width="2"/> <rect x="588" y="326" width="325" height="22" transform="rotate(-90 588 326)" stroke="#CFCFCF" stroke-width="2"/> <rect x="855" y="326" width="325" height="22" transform="rotate(-90 855 326)" stroke="#CFCFCF" stroke-width="2"/> </svg> 